<?xml version="1.0" encoding="UTF-8" standalone="no"?><!-- Generator: Gravit.io --><svg xmlns="http://www.w3.org/2000/svg" xmlns:xlink="http://www.w3.org/1999/xlink" style="isolation:isolate" viewBox="75.26 39.3 334.48 191.4" width="334.48pt" height="191.4pt"><defs><clipPath id="_clipPath_r3Ik5RAD5vLCFK7yAXF48nzOCj5wh1u5"><rect x="75.26" y="39.3" width="334.48" height="191.4"/></clipPath></defs><g clip-path="url(#_clipPath_r3Ik5RAD5vLCFK7yAXF48nzOCj5wh1u5)"><g><g style="opacity:0.51;"><path d=" M 325.635 64.433 C 292 64.433 264.733 91.697 264.733 125.335 C 264.733 158.967 292 186.233 325.635 186.233 C 359.269 186.233 386.535 158.967 386.535 125.335 C 386.535 91.697 359.269 64.433 325.635 64.433 Z " fill="rgb(112,61,42)"/><path d=" M 325.635 75.847 C 298.304 75.847 276.148 98.001 276.148 125.334 C 276.148 152.663 298.304 174.819 325.635 174.819 C 352.964 174.819 375.12 152.663 375.12 125.334 C 375.121 98.001 352.964 75.847 325.635 75.847 Z " fill="rgb(165,108,66)"/><path d=" M 325.635 85.421 C 303.591 85.421 285.722 103.289 285.722 125.334 C 285.722 147.376 303.591 165.245 325.635 165.245 C 347.677 165.245 365.547 147.375 365.547 125.334 C 365.547 103.289 347.677 85.421 325.635 85.421 Z " fill="rgb(198,184,175)"/><path d=" M 325.635 87.292 C 304.625 87.292 287.593 104.323 287.593 125.334 C 287.593 146.342 304.625 163.374 325.635 163.374 C 346.644 163.374 363.675 146.342 363.675 125.334 C 363.675 104.323 346.644 87.292 325.635 87.292 Z " fill="rgb(186,124,73)"/><path d=" M 294.483 103.52 C 293.195 105.353 292.09 107.276 291.164 109.259 L 325.635 125.333 L 294.483 103.52 Z " fill="rgb(206,46,46)"/><g><path d=" M 291.163 109.259 C 290.222 111.28 289.467 113.364 288.901 115.49 L 325.635 125.333 L 291.163 109.259 Z " fill="rgb(58,58,58)"/><path d=" M 298.747 98.445 C 297.152 100.039 295.735 101.738 294.483 103.52 L 325.635 125.333 L 298.747 98.445 Z " fill="rgb(58,58,58)"/></g><g><path d=" M 288.901 115.49 C 288.328 117.635 287.947 119.819 287.757 122.019 L 325.635 125.333 L 288.901 115.49 Z " fill="rgb(206,46,46)"/><path d=" M 303.822 94.182 C 302.039 95.433 300.339 96.853 298.747 98.445 L 325.635 125.333 L 303.822 94.182 Z " fill="rgb(206,46,46)"/><path d=" M 294.483 147.146 L 325.632 125.335 L 291.166 141.407 C 292.09 143.392 293.197 145.312 294.483 147.146 Z  M 325.634 125.334 L 325.632 125.335 L 325.635 125.334 L 325.634 125.334 Z " fill="rgb(206,46,46)"/></g><g><path d=" M 287.757 122.019 C 287.564 124.223 287.566 126.442 287.756 128.647 L 325.635 125.333 L 287.757 122.019 Z " fill="rgb(58,58,58)"/><path d=" M 288.901 135.176 C 289.469 137.301 290.222 139.388 291.166 141.407 L 325.635 125.334 L 288.901 135.176 Z " fill="rgb(58,58,58)"/></g><path d=" M 287.756 128.647 C 287.947 130.846 288.328 133.031 288.901 135.176 L 325.635 125.334 L 325.635 125.333 L 287.756 128.647 Z " fill="rgb(206,46,46)"/><g><path d=" M 352.521 98.447 L 325.635 125.333 L 356.786 103.52 C 355.535 101.738 354.115 100.039 352.521 98.447 Z " fill="rgb(58,58,58)"/><path d=" M 309.56 90.862 C 307.575 91.788 305.655 92.894 303.822 94.182 L 325.635 125.333 L 309.56 90.862 Z " fill="rgb(58,58,58)"/><path d=" M 328.948 87.455 L 325.635 125.333 L 335.477 88.599 C 333.333 88.026 331.147 87.646 328.948 87.455 Z " fill="rgb(58,58,58)"/><path d=" M 341.708 90.863 L 325.635 125.333 L 347.447 94.181 C 345.614 92.895 343.693 91.787 341.708 90.863 Z " fill="rgb(58,58,58)"/></g><g><path d=" M 347.447 94.181 L 325.635 125.333 L 352.521 98.447 C 350.93 96.854 349.228 95.433 347.447 94.181 Z " fill="rgb(206,46,46)"/><path d=" M 335.477 88.599 L 325.635 125.333 L 341.708 90.863 C 339.689 89.921 337.601 89.168 335.477 88.599 Z " fill="rgb(206,46,46)"/></g><path d=" M 294.483 147.146 C 295.735 148.928 297.154 150.627 298.748 152.22 L 325.634 125.334 L 294.483 147.146 Z " fill="rgb(58,58,58)"/><path d=" M 322.32 87.455 L 325.635 125.333 L 328.948 87.455 C 326.743 87.263 324.525 87.263 322.32 87.455 Z " fill="rgb(53,113,87)"/><path d=" M 322.32 87.455 C 320.123 87.646 317.936 88.026 315.792 88.6 L 325.635 125.333 L 322.32 87.455 Z " fill="rgb(58,58,58)"/><g><path d=" M 315.792 88.599 C 313.665 89.167 311.581 89.921 309.56 90.862 L 325.635 125.333 L 315.792 88.599 Z " fill="rgb(206,46,46)"/><path d=" M 325.635 125.333 L 362.368 135.175 C 362.941 133.031 363.321 130.845 363.511 128.647 L 325.635 125.333 Z " fill="rgb(206,46,46)"/><path d=" M 325.635 125.333 L 356.786 147.146 C 358.073 145.312 359.179 143.392 360.106 141.406 L 325.635 125.333 Z " fill="rgb(206,46,46)"/></g><path d=" M 363.513 122.02 L 325.635 125.333 L 363.511 128.647 C 363.703 126.441 363.704 124.223 363.513 122.02 Z " fill="rgb(58,58,58)"/><g><path d=" M 362.368 115.492 L 325.635 125.333 L 363.513 122.02 C 363.321 119.822 362.941 117.635 362.368 115.492 Z " fill="rgb(206,46,46)"/><path d=" M 356.786 103.52 L 325.635 125.333 L 360.105 109.259 C 359.179 107.274 358.073 105.354 356.786 103.52 Z " fill="rgb(206,46,46)"/></g><g><path d=" M 360.105 109.259 L 325.635 125.333 L 362.368 115.492 C 361.801 113.367 361.046 111.279 360.105 109.259 Z " fill="rgb(58,58,58)"/><path d=" M 325.635 125.333 L 352.522 152.221 C 354.115 150.628 355.535 148.929 356.786 147.146 L 325.635 125.333 Z " fill="rgb(58,58,58)"/></g><g><path d=" M 325.634 125.334 L 298.748 152.22 C 300.34 153.814 302.04 155.233 303.822 156.486 L 325.635 125.334 L 325.634 125.334 Z " fill="rgb(206,46,46)"/><path d=" M 325.635 125.333 L 325.635 125.334 L 322.321 163.211 C 324.526 163.403 326.744 163.403 328.949 163.21 L 325.635 125.333 Z " fill="rgb(206,46,46)"/><path d=" M 309.561 159.803 C 311.581 160.746 313.667 161.5 315.792 162.067 L 325.635 125.334 L 325.635 125.333 L 309.561 159.803 Z " fill="rgb(206,46,46)"/></g><g><path d=" M 315.792 162.067 C 317.936 162.639 320.123 163.022 322.321 163.212 L 325.635 125.334 L 315.792 162.067 Z " fill="rgb(58,58,58)"/><path d=" M 309.561 159.803 L 325.634 125.335 L 303.822 156.486 C 305.656 157.772 307.575 158.878 309.561 159.803 Z  M 325.634 125.335 L 325.635 125.334 L 325.635 125.333 L 325.634 125.335 Z " fill="rgb(58,58,58)"/><path d=" M 325.635 125.333 L 328.949 163.21 C 331.148 163.021 333.332 162.639 335.477 162.067 L 325.635 125.333 Z " fill="rgb(58,58,58)"/><path d=" M 325.635 125.333 L 341.708 159.803 C 343.693 158.878 345.613 157.772 347.447 156.485 L 325.635 125.333 Z " fill="rgb(58,58,58)"/></g><g><path d=" M 325.635 125.333 L 347.447 156.485 C 349.23 155.234 350.93 153.814 352.522 152.221 L 325.635 125.333 Z " fill="rgb(206,46,46)"/><path d=" M 325.635 125.333 L 335.477 162.067 C 337.603 161.499 339.688 160.747 341.708 159.803 L 325.635 125.333 Z " fill="rgb(206,46,46)"/></g><path d=" M 325.635 125.333 L 360.106 141.406 C 361.046 139.387 361.801 137.301 362.368 135.175 L 325.635 125.333 Z " fill="rgb(58,58,58)"/><path d=" M 325.635 93.18 C 307.877 93.18 293.481 107.575 293.481 125.334 C 293.481 143.09 307.877 157.486 325.635 157.486 C 343.392 157.486 357.787 143.09 357.787 125.334 C 357.787 107.575 343.392 93.18 325.635 93.18 Z " fill="rgb(191,175,165)"/><path d=" M 325.635 94.869 C 308.809 94.869 295.17 108.507 295.17 125.334 C 295.17 142.158 308.809 155.797 325.635 155.797 C 342.459 155.797 356.099 142.158 356.099 125.334 C 356.099 108.507 342.459 94.869 325.635 94.869 Z " fill="rgb(198,133,74)"/><path d=" M 300.114 107.464 C 299.059 108.965 298.154 110.54 297.395 112.165 L 325.635 125.333 L 300.114 107.464 Z " fill="rgb(224,54,54)"/><g><path d=" M 297.395 112.165 C 296.624 113.821 296.006 115.528 295.541 117.27 L 325.635 125.333 L 297.395 112.165 Z " fill="rgb(58,58,58)"/><path d=" M 303.607 103.306 C 302.301 104.611 301.14 106.003 300.114 107.464 L 325.635 125.333 L 303.607 103.306 Z " fill="rgb(58,58,58)"/></g><g><path d=" M 295.541 117.27 C 295.072 119.027 294.76 120.816 294.605 122.618 L 325.635 125.333 L 295.541 117.27 Z " fill="rgb(224,54,54)"/><path d=" M 307.765 99.813 C 306.304 100.839 304.912 102.002 303.607 103.306 L 325.635 125.333 L 307.765 99.813 Z " fill="rgb(224,54,54)"/><path d=" M 300.114 143.203 L 325.632 125.335 L 297.397 138.501 C 298.154 140.128 299.061 141.7 300.114 143.203 Z  M 325.634 125.334 L 325.632 125.335 L 325.635 125.334 L 325.634 125.334 Z " fill="rgb(224,54,54)"/></g><g><path d=" M 294.605 122.618 C 294.446 124.424 294.448 126.241 294.604 128.048 L 325.635 125.333 L 294.605 122.618 Z " fill="rgb(58,58,58)"/><path d=" M 295.542 133.396 C 296.007 135.137 296.624 136.847 297.397 138.501 L 325.634 125.334 L 295.542 133.396 Z " fill="rgb(58,58,58)"/></g><path d=" M 294.604 128.048 C 294.76 129.849 295.073 131.639 295.542 133.396 L 325.635 125.334 L 325.635 125.333 L 294.604 128.048 Z " fill="rgb(224,54,54)"/><g><path d=" M 347.661 103.307 L 325.635 125.333 L 351.154 107.464 C 350.13 106.003 348.966 104.612 347.661 103.307 Z " fill="rgb(58,58,58)"/><path d=" M 312.465 97.094 C 310.84 97.853 309.267 98.759 307.765 99.813 L 325.635 125.333 L 312.465 97.094 Z " fill="rgb(58,58,58)"/><path d=" M 328.349 94.303 L 325.635 125.333 L 333.698 95.24 C 331.941 94.771 330.15 94.459 328.349 94.303 Z " fill="rgb(58,58,58)"/><path d=" M 338.802 97.095 L 325.635 125.333 L 343.504 99.813 C 342.002 98.759 340.429 97.851 338.802 97.095 Z " fill="rgb(58,58,58)"/></g><g><path d=" M 343.504 99.813 L 325.635 125.333 L 347.661 103.307 C 346.357 102.002 344.963 100.839 343.504 99.813 Z " fill="rgb(224,54,54)"/><path d=" M 333.698 95.24 L 325.635 125.333 L 338.802 97.095 C 337.148 96.323 335.438 95.706 333.698 95.24 Z " fill="rgb(224,54,54)"/></g><path d=" M 300.114 143.203 C 301.14 144.663 302.303 146.055 303.608 147.359 L 325.634 125.334 L 300.114 143.203 Z " fill="rgb(58,58,58)"/><path d=" M 322.919 94.303 L 325.635 125.333 L 328.349 94.303 C 326.543 94.146 324.725 94.146 322.919 94.303 Z " fill="rgb(57,135,100)"/><path d=" M 322.919 94.303 C 321.119 94.459 319.328 94.771 317.571 95.24 L 325.635 125.333 L 322.919 94.303 Z " fill="rgb(58,58,58)"/><g><path d=" M 317.571 95.24 C 315.829 95.705 314.121 96.323 312.466 97.094 L 325.635 125.333 L 317.571 95.24 Z " fill="rgb(224,54,54)"/><path d=" M 325.635 125.333 L 355.727 133.396 C 356.197 131.639 356.508 129.849 356.664 128.048 L 325.635 125.333 Z " fill="rgb(224,54,54)"/><path d=" M 325.635 125.333 L 351.155 143.203 C 352.209 141.7 353.115 140.128 353.874 138.5 L 325.635 125.333 Z " fill="rgb(224,54,54)"/></g><path d=" M 356.665 122.619 L 325.635 125.333 L 356.664 128.048 C 356.821 126.241 356.821 124.424 356.665 122.619 Z " fill="rgb(58,58,58)"/><g><path d=" M 355.727 117.271 L 325.635 125.333 L 356.665 122.619 C 356.508 120.818 356.197 119.027 355.727 117.271 Z " fill="rgb(224,54,54)"/><path d=" M 351.154 107.464 L 325.635 125.333 L 353.873 112.165 C 353.115 110.539 352.209 108.966 351.154 107.464 Z " fill="rgb(224,54,54)"/></g><g><path d=" M 353.873 112.165 L 325.635 125.333 L 355.727 117.271 C 355.263 115.53 354.644 113.82 353.873 112.165 Z " fill="rgb(58,58,58)"/><path d=" M 325.635 125.333 L 347.661 147.36 C 348.966 146.055 350.13 144.663 351.154 143.202 L 325.635 125.333 Z " fill="rgb(58,58,58)"/></g><g><path d=" M 325.634 125.334 L 303.609 147.359 C 304.913 148.665 306.306 149.828 307.765 150.854 L 325.635 125.334 L 325.634 125.334 Z " fill="rgb(224,54,54)"/><path d=" M 325.635 125.333 L 325.635 125.334 L 322.92 156.364 C 324.726 156.521 326.544 156.521 328.35 156.363 L 325.635 125.333 Z " fill="rgb(224,54,54)"/><path d=" M 312.466 153.572 C 314.121 154.344 315.83 154.962 317.571 155.426 L 325.635 125.334 L 325.635 125.333 L 312.466 153.572 Z " fill="rgb(224,54,54)"/></g><g><path d=" M 317.571 155.426 C 319.328 155.895 321.119 156.208 322.92 156.364 L 325.635 125.334 L 317.571 155.426 Z " fill="rgb(58,58,58)"/><path d=" M 325.634 125.335 L 325.635 125.334 L 325.635 125.333 L 325.634 125.335 Z  M 312.466 153.572 L 325.634 125.335 L 307.765 150.854 C 309.268 151.907 310.84 152.814 312.466 153.572 Z " fill="rgb(58,58,58)"/><path d=" M 325.635 125.333 L 328.35 156.363 C 330.152 156.207 331.941 155.894 333.698 155.426 L 325.635 125.333 Z " fill="rgb(58,58,58)"/><path d=" M 325.635 125.333 L 338.802 153.572 C 340.429 152.814 342.001 151.907 343.504 150.854 L 325.635 125.333 Z " fill="rgb(58,58,58)"/></g><g><path d=" M 325.635 125.333 L 343.504 150.854 C 344.964 149.829 346.357 148.665 347.661 147.36 L 325.635 125.333 Z " fill="rgb(224,54,54)"/><path d=" M 325.635 125.333 L 333.698 155.426 C 335.44 154.961 337.147 154.344 338.802 153.572 L 325.635 125.333 Z " fill="rgb(224,54,54)"/></g><path d=" M 325.635 125.333 L 353.874 138.5 C 354.644 136.846 355.263 135.137 355.728 133.396 L 325.635 125.333 Z " fill="rgb(58,58,58)"/><circle vector-effect="non-scaling-stroke" cx="325.63429191054297" cy="97.58535608422298" r="2.209411627727036" fill="rgb(226,226,226)"/><path d=" M 325.567 95.608 C 324.474 95.608 323.588 96.494 323.588 97.586 C 323.588 98.679 324.474 99.564 325.567 99.564 C 326.659 99.564 326.659 95.608 325.567 95.608 Z " fill="rgb(255,255,255)"/><path d=" M 325.635 101.162 C 312.285 101.162 301.463 111.983 301.463 125.334 C 301.463 138.682 312.285 149.504 325.635 149.504 C 338.984 149.504 349.806 138.682 349.806 125.334 C 349.806 111.983 338.984 101.162 325.635 101.162 Z " fill="rgb(206,192,183)"/><path d=" M 325.635 102.175 C 312.844 102.175 302.476 112.543 302.476 125.334 C 302.476 138.123 312.844 148.491 325.635 148.491 C 338.424 148.491 348.793 138.123 348.793 125.334 C 348.793 112.543 338.424 102.175 325.635 102.175 Z " fill="rgb(216,148,80)"/><path d=" M 340.514 109.776 C 332.109 101.371 318.482 101.371 310.077 109.776 C 301.672 118.181 301.672 131.808 310.077 140.213 C 314.271 144.405 323.948 138.931 331.549 131.348 C 339.184 123.732 344.725 113.988 340.514 109.776 Z " fill="rgb(224,159,101)"/><rect x="325.266" y="102.088" width="0.736" height="46.493" transform="matrix(1,0,0,1,0,0)" fill="rgb(104,91,81)"/><rect x="302.389" y="124.965" width="46.493" height="0.736" transform="matrix(1,0,0,1,0,0)" fill="rgb(104,91,81)"/><g><g><rect x="302.388" y="124.964" width="46.493" height="0.736" transform="matrix(0.707,-0.707,0.707,0.707,6.753,266.967)" fill="rgb(104,91,81)"/></g><g><rect x="325.266" y="102.088" width="0.736" height="46.493" transform="matrix(0.707,-0.707,0.707,0.707,6.751,266.967)" fill="rgb(104,91,81)"/></g></g><circle vector-effect="non-scaling-stroke" cx="325.6342919105429" cy="125.3331112266658" r="7.447190126525186" fill="rgb(104,91,81)"/><circle vector-effect="non-scaling-stroke" cx="325.6342919105441" cy="125.33311122666603" r="3.2431707793223836" fill="rgb(76,70,66)"/><path d=" M 325.615 76.474 C 325.185 76.474 324.265 78.288 324.265 80.525 C 324.265 82.762 325.063 84.575 325.615 84.575 C 326.167 84.575 326.965 82.762 326.965 80.525 C 326.965 78.288 326.045 76.474 325.615 76.474 Z " fill="rgb(193,189,188)"/><path d=" M 325.615 76.474 C 325.185 76.474 324.265 78.288 324.265 80.525 C 324.265 82.762 325.063 84.575 325.615 84.575 C 326.167 84.575 326.045 76.474 325.615 76.474 Z " fill="rgb(216,216,216)"/><path d=" M 325.615 166.078 C 325.185 166.078 324.265 167.892 324.265 170.129 C 324.265 172.366 325.063 174.179 325.615 174.179 C 326.167 174.179 326.965 172.366 326.965 170.129 C 326.965 167.892 326.045 166.078 325.615 166.078 Z " fill="rgb(193,189,188)"/><path d=" M 325.615 166.078 C 325.185 166.078 324.265 167.892 324.265 170.129 C 324.265 172.366 325.063 174.179 325.615 174.179 C 326.167 174.179 326.045 166.078 325.615 166.078 Z " fill="rgb(216,216,216)"/><path d=" M 370.417 123.977 C 368.18 123.977 366.366 124.774 366.366 125.327 C 366.366 125.879 368.18 126.677 370.417 126.677 C 372.654 126.677 374.467 125.756 374.467 125.327 C 374.467 124.897 372.654 123.977 370.417 123.977 Z " fill="rgb(193,189,188)"/><path d=" M 370.417 123.977 C 368.18 123.977 366.366 124.774 366.366 125.327 C 366.366 125.879 374.467 125.756 374.467 125.327 C 374.467 124.897 372.654 123.977 370.417 123.977 Z " fill="rgb(216,216,216)"/><path d=" M 280.813 123.977 C 278.576 123.977 276.762 124.774 276.762 125.327 C 276.762 125.879 278.576 126.677 280.813 126.677 C 283.05 126.677 284.864 125.756 284.864 125.327 C 284.864 124.897 283.05 123.977 280.813 123.977 Z " fill="rgb(193,189,188)"/><path d=" M 280.813 123.977 C 278.576 123.977 276.762 124.774 276.762 125.327 C 276.762 125.879 284.864 125.756 284.864 125.327 C 284.864 124.897 283.05 123.977 280.813 123.977 Z " fill="rgb(216,216,216)"/><path d=" M 360.159 90.783 C 359.855 90.479 357.922 91.11 356.34 92.692 C 354.758 94.274 354.04 96.121 354.431 96.511 C 354.821 96.902 356.667 96.184 358.249 94.602 C 359.831 93.02 360.463 91.086 360.159 90.783 Z " fill="rgb(193,189,188)"/><path d=" M 360.159 90.783 C 359.855 90.479 357.922 91.11 356.34 92.692 C 354.758 94.274 354.04 96.121 354.431 96.511 C 354.821 96.902 360.463 91.086 360.159 90.783 Z " fill="rgb(216,216,216)"/><path d=" M 296.8 154.142 C 296.496 153.838 294.563 154.47 292.981 156.052 C 291.399 157.634 290.681 159.48 291.071 159.871 C 291.462 160.261 293.308 159.543 294.89 157.961 C 296.472 156.379 297.103 154.446 296.8 154.142 Z " fill="rgb(193,189,188)"/><path d=" M 296.8 154.142 C 296.496 153.838 294.563 154.47 292.981 156.052 C 291.399 157.634 290.681 159.48 291.071 159.871 C 291.462 160.261 297.103 154.446 296.8 154.142 Z " fill="rgb(216,216,216)"/><path d=" M 358.249 156.052 C 356.667 154.47 354.821 153.752 354.431 154.142 C 354.04 154.533 354.758 156.379 356.34 157.961 C 357.922 159.543 359.855 160.175 360.159 159.871 C 360.463 159.567 359.831 157.634 358.249 156.052 Z " fill="rgb(193,189,188)"/><path d=" M 358.249 156.052 C 356.667 154.47 354.821 153.752 354.431 154.142 C 354.04 154.533 359.855 160.175 360.159 159.871 C 360.463 159.567 359.831 157.634 358.249 156.052 Z " fill="rgb(216,216,216)"/><path d=" M 294.89 92.692 C 293.308 91.11 291.462 90.392 291.071 90.783 C 290.68 91.173 291.398 93.02 292.98 94.602 C 294.562 96.184 296.496 96.815 296.799 96.511 C 297.103 96.207 296.472 94.274 294.89 92.692 Z " fill="rgb(193,189,188)"/><path d=" M 294.89 92.692 C 293.308 91.11 291.462 90.392 291.071 90.783 C 290.68 91.173 296.496 96.815 296.799 96.511 C 297.103 96.207 296.472 94.274 294.89 92.692 Z " fill="rgb(216,216,216)"/><path d=" M 343.349 82.74 C 341.286 81.876 339.305 81.911 339.091 82.42 C 338.878 82.93 340.242 84.366 342.305 85.231 C 344.369 86.095 346.397 85.947 346.563 85.551 C 346.729 85.155 345.412 83.605 343.349 82.74 Z " fill="rgb(193,189,188)"/><path d=" M 343.349 82.74 C 341.286 81.876 339.305 81.911 339.091 82.42 C 338.878 82.93 346.397 85.947 346.563 85.551 C 346.729 85.155 345.412 83.605 343.349 82.74 Z " fill="rgb(216,216,216)"/><path d=" M 308.925 164.891 C 306.862 164.027 304.881 164.062 304.668 164.571 C 304.454 165.081 305.819 166.517 307.882 167.382 C 309.945 168.247 311.973 168.098 312.139 167.702 C 312.305 167.306 310.989 165.756 308.925 164.891 Z " fill="rgb(193,189,188)"/><path d=" M 308.925 164.891 C 306.862 164.027 304.881 164.062 304.668 164.571 C 304.454 165.081 311.973 168.098 312.139 167.702 C 312.305 167.306 310.989 165.756 308.925 164.891 Z " fill="rgb(216,216,216)"/><path d=" M 368.257 138.537 C 367.747 138.324 366.311 139.688 365.446 141.751 C 364.581 143.814 364.73 145.843 365.126 146.009 C 365.522 146.175 367.072 144.858 367.937 142.795 C 368.801 140.732 368.766 138.751 368.257 138.537 Z " fill="rgb(193,189,188)"/><path d=" M 368.257 138.537 C 367.747 138.324 364.73 145.843 365.126 146.009 C 365.522 146.175 367.072 144.858 367.937 142.795 C 368.801 140.732 368.766 138.751 368.257 138.537 Z " fill="rgb(216,216,216)"/><path d=" M 286.105 104.113 C 285.596 103.9 284.159 105.264 283.295 107.327 C 282.43 109.391 282.579 111.419 282.974 111.585 C 283.371 111.751 284.92 110.434 285.785 108.371 C 286.65 106.308 286.615 104.327 286.105 104.113 Z " fill="rgb(193,189,188)"/><path d=" M 286.105 104.113 C 285.596 103.9 282.578 111.419 282.974 111.585 C 283.371 111.751 284.92 110.434 285.785 108.371 C 286.65 106.308 286.615 104.327 286.105 104.113 Z " fill="rgb(216,216,216)"/><path d=" M 368.071 107.652 C 367.223 105.582 365.798 104.206 365.287 104.415 C 364.775 104.625 364.724 106.605 365.572 108.676 C 366.42 110.746 367.959 112.076 368.356 111.913 C 368.754 111.75 368.919 109.723 368.071 107.652 Z " fill="rgb(193,189,188)"/><path d=" M 368.071 107.652 C 367.223 105.582 365.798 104.206 365.287 104.415 C 364.775 104.625 367.959 112.075 368.356 111.913 C 368.754 111.75 368.919 109.723 368.071 107.652 Z " fill="rgb(216,216,216)"/><path d=" M 285.64 141.401 C 284.792 139.33 283.367 137.954 282.856 138.164 C 282.344 138.373 282.293 140.353 283.141 142.424 C 283.989 144.494 285.528 145.824 285.925 145.661 C 286.323 145.498 286.488 143.471 285.64 141.401 Z " fill="rgb(193,189,188)"/><path d=" M 285.64 141.401 C 284.792 139.33 283.367 137.954 282.856 138.164 C 282.344 138.373 285.528 145.824 285.925 145.661 C 286.323 145.498 286.488 143.471 285.64 141.401 Z " fill="rgb(216,216,216)"/><path d=" M 346.229 164.719 C 346.019 164.208 344.039 164.157 341.968 165.004 C 339.898 165.852 338.569 167.391 338.731 167.789 C 338.894 168.186 340.921 168.351 342.992 167.504 C 345.062 166.656 346.438 165.23 346.229 164.719 Z " fill="rgb(193,189,188)"/><path d=" M 346.229 164.719 C 346.019 164.208 338.569 167.391 338.731 167.788 C 338.894 168.186 340.921 168.351 342.992 167.503 C 345.062 166.656 346.438 165.23 346.229 164.719 Z " fill="rgb(216,216,216)"/><path d=" M 312.48 82.288 C 312.271 81.777 310.291 81.725 308.22 82.573 C 306.15 83.421 304.82 84.96 304.983 85.357 C 305.146 85.755 307.173 85.92 309.243 85.072 C 311.314 84.225 312.69 82.799 312.48 82.288 Z " fill="rgb(193,189,188)"/><path d=" M 312.48 82.288 C 312.271 81.777 304.82 84.96 304.983 85.357 C 305.146 85.755 307.173 85.92 309.243 85.072 C 311.314 84.225 312.69 82.799 312.48 82.288 Z " fill="rgb(216,216,216)"/></g><g><text transform="matrix(1.933,0,0,1.933,83,180.124)" style="font-family:'Pacifico';font-weight:400;font-size:30px;font-style:normal;fill:#402217;stroke:none;">Roulette</text><text transform="matrix(1.933,0,0,1.933,83,114.874)" style="font-family:'Pacifico';font-weight:400;font-size:30px;font-style:normal;fill:#402217;stroke:none;">Restaurant</text></g></g></g></svg>